<svg width="31" height="31" viewBox="0 0 31 31" fill="none" xmlns="http://www.w3.org/2000/svg">
<g id="Frame">
<path id="Vector" d="M17.375 25.9425C17.375 26.1911 17.4738 26.4296 17.6496 26.6054C17.8254 26.7812 18.0639 26.88 18.3125 26.88H24.875C25.3723 26.88 25.8492 26.6825 26.2008 26.3308C26.5525 25.9792 26.75 25.5023 26.75 25.005V6.255C26.75 5.75772 26.5525 5.28081 26.2008 4.92918C25.8492 4.57755 25.3723 4.38 24.875 4.38H18.3125C18.0639 4.38 17.8254 4.47878 17.6496 4.65459C17.4738 4.83041 17.375 5.06886 17.375 5.3175C17.375 5.56615 17.4738 5.8046 17.6496 5.98042C17.8254 6.15623 18.0639 6.255 18.3125 6.255H24.875V25.005H18.3125C18.0639 25.005 17.8254 25.1038 17.6496 25.2796C17.4738 25.4554 17.375 25.6939 17.375 25.9425ZM4.52422 14.9667L9.21172 10.2792C9.38763 10.1033 9.62622 10.0045 9.875 10.0045C10.1238 10.0045 10.3624 10.1033 10.5383 10.2792C10.7142 10.4551 10.813 10.6937 10.813 10.9425C10.813 11.1913 10.7142 11.4299 10.5383 11.6058L7.45039 14.6925H18.3125C18.5611 14.6925 18.7996 14.7913 18.9754 14.9671C19.1512 15.1429 19.25 15.3814 19.25 15.63C19.25 15.8786 19.1512 16.1171 18.9754 16.2929C18.7996 16.4687 18.5611 16.5675 18.3125 16.5675H7.45039L10.5383 19.6542C10.7142 19.8301 10.813 20.0687 10.813 20.3175C10.813 20.5663 10.7142 20.8049 10.5383 20.9808C10.3624 21.1567 10.1238 21.2555 9.875 21.2555C9.62622 21.2555 9.38763 21.1567 9.21172 20.9808L4.52422 16.2933C4.43705 16.2062 4.3679 16.1028 4.32072 15.989C4.27355 15.8752 4.24926 15.7532 4.24926 15.63C4.24926 15.5068 4.27355 15.3848 4.32072 15.271C4.3679 15.1572 4.43705 15.0538 4.52422 14.9667Z" fill="white"/>
</g>
</svg>
