<svg width="31" height="32" viewBox="0 0 31 32" fill="none" xmlns="http://www.w3.org/2000/svg">
<g id="Frame">
<path id="Vector" d="M25.0703 4.39062H22.1992V3.43359C22.1992 3.17977 22.0984 2.93635 21.9189 2.75687C21.7394 2.57739 21.496 2.47656 21.2422 2.47656C20.9884 2.47656 20.7449 2.57739 20.5655 2.75687C20.386 2.93635 20.2852 3.17977 20.2852 3.43359V4.39062H10.7148V3.43359C10.7148 3.17977 10.614 2.93635 10.4345 2.75687C10.2551 2.57739 10.0116 2.47656 9.75781 2.47656C9.50399 2.47656 9.26057 2.57739 9.08109 2.75687C8.90161 2.93635 8.80078 3.17977 8.80078 3.43359V4.39062H5.92969C5.42205 4.39062 4.9352 4.59228 4.57624 4.95124C4.21728 5.3102 4.01563 5.79705 4.01562 6.30469V25.4453C4.01563 25.953 4.21728 26.4398 4.57624 26.7988C4.9352 27.1577 5.42205 27.3594 5.92969 27.3594H25.0703C25.578 27.3594 26.0648 27.1577 26.4238 26.7988C26.7827 26.4398 26.9844 25.953 26.9844 25.4453V6.30469C26.9844 5.79705 26.7827 5.3102 26.4238 4.95124C26.0648 4.59228 25.578 4.39062 25.0703 4.39062ZM8.80078 6.30469V7.26172C8.80078 7.51554 8.90161 7.75896 9.08109 7.93844C9.26057 8.11792 9.50399 8.21875 9.75781 8.21875C10.0116 8.21875 10.2551 8.11792 10.4345 7.93844C10.614 7.75896 10.7148 7.51554 10.7148 7.26172V6.30469H20.2852V7.26172C20.2852 7.51554 20.386 7.75896 20.5655 7.93844C20.7449 8.11792 20.9884 8.21875 21.2422 8.21875C21.496 8.21875 21.7394 8.11792 21.9189 7.93844C22.0984 7.75896 22.1992 7.51554 22.1992 7.26172V6.30469H25.0703V10.1328H5.92969V6.30469H8.80078ZM25.0703 25.4453H5.92969V12.0469H25.0703V25.4453ZM13.5859 14.918V22.5742C13.5859 22.828 13.4851 23.0715 13.3056 23.2509C13.1262 23.4304 12.8827 23.5312 12.6289 23.5312C12.3751 23.5312 12.1317 23.4304 11.9522 23.2509C11.7727 23.0715 11.6719 22.828 11.6719 22.5742V16.466L11.1431 16.7315C10.9159 16.8451 10.653 16.8638 10.412 16.7835C10.1711 16.7032 9.97189 16.5304 9.8583 16.3033C9.74472 16.0761 9.72603 15.8131 9.80634 15.5722C9.88666 15.3312 10.0594 15.132 10.2866 15.0185L12.2006 14.0614C12.3466 13.9884 12.5088 13.9539 12.6719 13.9612C12.8349 13.9685 12.9934 14.0174 13.1322 14.1033C13.271 14.1891 13.3856 14.309 13.465 14.4516C13.5444 14.5942 13.5861 14.7548 13.5859 14.918ZM20.6632 18.5607L18.3711 21.6172H20.2852C20.539 21.6172 20.7824 21.718 20.9619 21.8975C21.1414 22.077 21.2422 22.3204 21.2422 22.5742C21.2422 22.828 21.1414 23.0715 20.9619 23.2509C20.7824 23.4304 20.539 23.5312 20.2852 23.5312H16.457C16.2793 23.5312 16.1051 23.4818 15.9539 23.3883C15.8027 23.2949 15.6805 23.1612 15.601 23.0022C15.5216 22.8432 15.4879 22.6653 15.5039 22.4883C15.5198 22.3113 15.5848 22.1422 15.6914 22L19.1343 17.4098C19.2126 17.3056 19.2688 17.1864 19.2994 17.0597C19.33 16.9329 19.3344 16.8013 19.3123 16.6728C19.2902 16.5443 19.242 16.4216 19.1708 16.3124C19.0996 16.2032 19.0068 16.1096 18.8982 16.0376C18.7895 15.9655 18.6673 15.9164 18.539 15.8932C18.4107 15.8701 18.279 15.8734 18.152 15.903C18.025 15.9326 17.9054 15.9878 17.8005 16.0653C17.6956 16.1427 17.6077 16.2408 17.5421 16.3535C17.4811 16.4658 17.3982 16.5648 17.2984 16.6446C17.1985 16.7243 17.0837 16.7833 16.9607 16.818C16.8377 16.8526 16.709 16.8623 16.5822 16.8464C16.4554 16.8306 16.333 16.7895 16.2224 16.7255C16.1117 16.6616 16.0149 16.5762 15.9378 16.4743C15.8607 16.3723 15.8048 16.256 15.7734 16.1321C15.742 16.0083 15.7357 15.8793 15.7549 15.753C15.7741 15.6266 15.8184 15.5054 15.8852 15.3965C16.2013 14.8494 16.6891 14.4219 17.2729 14.1802C17.8567 13.9385 18.5039 13.8962 19.1143 14.0597C19.7246 14.2233 20.2639 14.5836 20.6486 15.0848C21.0333 15.586 21.242 16.2002 21.2422 16.832C21.2442 17.4562 21.0407 18.0637 20.6632 18.5607Z" fill="white"/>
</g>
</svg>
