<svg width="31" height="31" viewBox="0 0 31 31" fill="none" xmlns="http://www.w3.org/2000/svg">
<g id="Frame">
<path id="Vector" d="M12.1504 13.9909C12.2959 13.9069 12.4167 13.786 12.5007 13.6405C12.5847 13.495 12.6289 13.3299 12.6289 13.1619V4.54858C12.628 4.396 12.5907 4.24584 12.52 4.11061C12.4494 3.97539 12.3474 3.85902 12.2226 3.77122C12.0978 3.68342 11.9538 3.62674 11.8027 3.60589C11.6515 3.58504 11.4976 3.60063 11.3537 3.65137C8.56029 4.64 6.21118 6.59262 4.72862 9.15821C3.24606 11.7238 2.72728 14.7341 3.26554 17.648C3.29344 17.7986 3.35712 17.9404 3.45121 18.0614C3.54531 18.1823 3.66707 18.2789 3.80626 18.343C3.9317 18.4017 4.06855 18.4319 4.20702 18.4315C4.37499 18.4316 4.54003 18.3874 4.68554 18.3035L12.1504 13.9909ZM10.7148 5.99849V12.6092L4.987 15.9145C4.97264 15.7339 4.97264 15.5521 4.97264 15.375C4.97434 13.4351 5.51132 11.5332 6.52446 9.87882C7.5376 8.22445 8.98761 6.88172 10.7148 5.99849ZM26.3073 9.2165C26.2965 9.19497 26.2857 9.17224 26.2726 9.15071C26.2594 9.12918 26.2486 9.11123 26.2355 9.09209C25.1386 7.21847 23.5706 5.66434 21.6874 4.584C19.8042 3.50367 17.6711 2.9347 15.5 2.93359C15.2462 2.93359 15.0027 3.03442 14.8233 3.2139C14.6438 3.39338 14.543 3.6368 14.543 3.89063V14.8761L5.115 20.3671C5.0056 20.4305 4.90985 20.515 4.83328 20.6157C4.75672 20.7163 4.70086 20.8311 4.66894 20.9535C4.63701 21.0758 4.62965 21.2033 4.64729 21.3285C4.66492 21.4538 4.70719 21.5742 4.77167 21.683C6.1549 24.0385 8.27489 25.8733 10.8045 26.9042C13.334 27.9351 16.1326 28.1049 18.7682 27.3874C21.4039 26.6698 23.7301 25.1048 25.388 22.9338C27.0458 20.7628 27.9431 18.1066 27.9414 15.375C27.9441 13.2146 27.3807 11.0913 26.3073 9.2165ZM16.457 4.89072C17.9749 5.03044 19.4443 5.49791 20.7639 6.26086C22.0835 7.02382 23.2217 8.06408 24.1001 9.30982L16.457 13.7612V4.89072ZM15.5 25.9023C13.8293 25.8981 12.1833 25.4982 10.6968 24.7355C9.21035 23.9729 7.92559 22.869 6.94772 21.5144L15.9677 16.2615L15.9941 16.2447L25.0583 10.9655C25.7982 12.5694 26.1226 14.3337 26.0016 16.0959C25.8807 17.8581 25.3183 19.5615 24.3662 21.0493C23.4142 22.5371 22.103 23.7614 20.5536 24.6095C19.0042 25.4576 17.2663 25.9022 15.5 25.9023Z" fill="white"/>
</g>
</svg>
