<svg width="31" height="30" viewBox="0 0 31 30" fill="none" xmlns="http://www.w3.org/2000/svg">
<g id="Frame">
<path id="Vector" d="M27.8679 16.6676C27.7476 16.5471 27.5968 16.4616 27.4317 16.4203C27.2665 16.379 27.0932 16.3835 26.9304 16.4332C25.1428 16.9737 23.2421 17.019 21.4307 16.5643C19.6194 16.1097 17.9653 15.1722 16.6448 13.8517C15.3243 12.5311 14.3867 10.8771 13.9321 9.06573C13.4775 7.2544 13.5228 5.35366 14.0632 3.56605C14.1134 3.40316 14.1182 3.22968 14.0771 3.06427C14.036 2.89885 13.9507 2.74776 13.8301 2.62725C13.7096 2.50673 13.5585 2.42135 13.3931 2.38028C13.2277 2.33922 13.0542 2.34402 12.8913 2.39417C10.4199 3.15126 8.25017 4.66854 6.69095 6.73011C5.32737 8.54049 4.49562 10.6952 4.28915 12.9523C4.08268 15.2093 4.50966 17.4792 5.52213 19.5069C6.5346 21.5347 8.09244 23.2399 10.0206 24.4311C11.9488 25.6223 14.171 26.2522 16.4374 26.25C19.0816 26.2582 21.6554 25.3986 23.764 23.8032C25.8256 22.2439 27.3429 20.0742 28.0999 17.6028C28.1495 17.4405 28.1541 17.2678 28.1132 17.1031C28.0724 16.9384 27.9876 16.7879 27.8679 16.6676ZM22.6367 22.3055C20.651 23.8011 18.1918 24.5291 15.712 24.3555C13.2321 24.1818 10.8985 23.1182 9.14056 21.3605C7.38267 19.6028 6.3189 17.2692 6.14505 14.7893C5.97121 12.3095 6.69901 9.8503 8.19446 7.86449C9.16877 6.57784 10.4284 5.53486 11.8742 4.81761C11.7918 5.39561 11.7503 5.9787 11.7499 6.56253C11.7533 9.79381 13.0385 12.8918 15.3233 15.1766C17.6082 17.4615 20.7062 18.7466 23.9374 18.75C24.5224 18.7498 25.1067 18.7083 25.6859 18.6258C24.968 20.0718 23.9242 21.3315 22.6367 22.3055Z" fill="white"/>
</g>
</svg>
