<svg width="31" height="31" viewBox="0 0 31 31" fill="none" xmlns="http://www.w3.org/2000/svg">
<g id="Frame">
<path id="Vector" d="M20.2852 13.7109C20.2852 13.9648 20.1843 14.2082 20.0048 14.3877C19.8254 14.5671 19.5819 14.668 19.3281 14.668H11.6719C11.4181 14.668 11.1746 14.5671 10.9952 14.3877C10.8157 14.2082 10.7148 13.9648 10.7148 13.7109C10.7148 13.4571 10.8157 13.2137 10.9952 13.0342C11.1746 12.8547 11.4181 12.7539 11.6719 12.7539H19.3281C19.5819 12.7539 19.8254 12.8547 20.0048 13.0342C20.1843 13.2137 20.2852 13.4571 20.2852 13.7109ZM19.3281 16.582H11.6719C11.4181 16.582 11.1746 16.6829 10.9952 16.8623C10.8157 17.0418 10.7148 17.2852 10.7148 17.5391C10.7148 17.7929 10.8157 18.0363 10.9952 18.2158C11.1746 18.3953 11.4181 18.4961 11.6719 18.4961H19.3281C19.5819 18.4961 19.8254 18.3953 20.0048 18.2158C20.1843 18.0363 20.2852 17.7929 20.2852 17.5391C20.2852 17.2852 20.1843 17.0418 20.0048 16.8623C19.8254 16.6829 19.5819 16.582 19.3281 16.582ZM27.9414 15.1465C27.9379 18.3182 26.6764 21.359 24.4337 23.6017C22.191 25.8444 19.1502 27.1059 15.9785 27.1094H5.89021C5.39323 27.1087 4.91679 26.911 4.56538 26.5596C4.21396 26.2082 4.01626 25.7318 4.01562 25.2348V15.1465C4.01563 11.9737 5.276 8.93092 7.51947 6.68744C9.76295 4.44397 12.8058 3.18359 15.9785 3.18359C19.1513 3.18359 22.1941 4.44397 24.4376 6.68744C26.681 8.93092 27.9414 11.9737 27.9414 15.1465ZM26.0273 15.1465C26.0273 12.4814 24.9686 9.92541 23.0841 8.04089C21.1996 6.15637 18.6436 5.09766 15.9785 5.09766C13.3134 5.09766 10.7574 6.15637 8.87292 8.04089C6.9884 9.92541 5.92969 12.4814 5.92969 15.1465V25.1953H15.9785C18.6428 25.1925 21.1971 24.1328 23.081 22.2489C24.9649 20.365 26.0245 17.8107 26.0273 15.1465Z" fill="white"/>
</g>
</svg>
