<svg width="24" height="24" viewBox="0 0 24 24" fill="none" xmlns="http://www.w3.org/2000/svg">
<g id="Frame">
<path id="Vector" d="M21.5308 20.4693L16.8367 15.7762C18.1973 14.1428 18.8757 12.0478 18.7309 9.92689C18.5861 7.80603 17.6292 5.82263 16.0593 4.3893C14.4894 2.95597 12.4274 2.18307 10.3021 2.23137C8.17684 2.27967 6.15202 3.14546 4.64885 4.64862C3.14568 6.15179 2.2799 8.17661 2.2316 10.3019C2.1833 12.4271 2.9562 14.4892 4.38953 16.0591C5.82286 17.629 7.80626 18.5859 9.92712 18.7307C12.048 18.8755 14.143 18.197 15.7764 16.8365L20.4696 21.5306C20.5392 21.6003 20.622 21.6555 20.713 21.6933C20.8041 21.731 20.9016 21.7504 21.0002 21.7504C21.0987 21.7504 21.1963 21.731 21.2874 21.6933C21.3784 21.6555 21.4611 21.6003 21.5308 21.5306C21.6005 21.4609 21.6558 21.3782 21.6935 21.2871C21.7312 21.1961 21.7506 21.0985 21.7506 21C21.7506 20.9014 21.7312 20.8038 21.6935 20.7128C21.6558 20.6217 21.6005 20.539 21.5308 20.4693ZM3.75018 10.5C3.75018 9.16493 4.14606 7.85989 4.88776 6.74986C5.62946 5.63982 6.68367 4.77466 7.91707 4.26377C9.15047 3.75288 10.5077 3.6192 11.817 3.87965C13.1264 4.1401 14.3292 4.78298 15.2732 5.72698C16.2172 6.67099 16.86 7.87372 17.1205 9.1831C17.3809 10.4925 17.2473 11.8497 16.7364 13.0831C16.2255 14.3165 15.3603 15.3707 14.2503 16.1124C13.1403 16.8541 11.8352 17.25 10.5002 17.25C8.71058 17.248 6.99485 16.5362 5.72941 15.2707C4.46396 14.0053 3.75217 12.2896 3.75018 10.5Z" fill="#969696"/>
</g>
</svg>
