<svg width="31" height="32" viewBox="0 0 31 32" fill="none" xmlns="http://www.w3.org/2000/svg">
<g id="Frame">
<path id="Vector" d="M26.0273 5.59766H16.457V3.68359C16.457 3.42977 16.3562 3.18635 16.1767 3.00687C15.9972 2.82739 15.7538 2.72656 15.5 2.72656C15.2462 2.72656 15.0028 2.82739 14.8233 3.00687C14.6438 3.18635 14.543 3.42977 14.543 3.68359V5.59766H4.97266C4.46502 5.59766 3.97817 5.79932 3.61921 6.15827C3.26025 6.51723 3.05859 7.00408 3.05859 7.51172V21.8672C3.05859 22.3748 3.26025 22.8617 3.61921 23.2206C3.97817 23.5796 4.46502 23.7813 4.97266 23.7813H9.68125L7.09607 27.0112C6.93743 27.2095 6.86406 27.4627 6.89211 27.7151C6.92015 27.9675 7.04731 28.1984 7.24561 28.3571C7.4439 28.5157 7.6971 28.5891 7.94949 28.561C8.20188 28.533 8.43279 28.4058 8.59143 28.2075L12.1312 23.7813H18.8688L22.4086 28.2075C22.4871 28.3057 22.5842 28.3875 22.6944 28.4481C22.8045 28.5088 22.9255 28.5471 23.0505 28.561C23.1755 28.5749 23.302 28.564 23.4227 28.529C23.5435 28.494 23.6562 28.4356 23.7544 28.3571C23.8526 28.2785 23.9343 28.1814 23.995 28.0712C24.0556 27.9611 24.094 27.8401 24.1079 27.7151C24.1218 27.5901 24.1109 27.4637 24.0759 27.3429C24.0409 27.2221 23.9825 27.1094 23.9039 27.0112L21.3188 23.7813H26.0273C26.535 23.7813 27.0218 23.5796 27.3808 23.2206C27.7397 22.8617 27.9414 22.3748 27.9414 21.8672V7.51172C27.9414 7.00408 27.7397 6.51723 27.3808 6.15827C27.0218 5.79932 26.535 5.59766 26.0273 5.59766ZM26.0273 21.8672H4.97266V7.51172H26.0273V21.8672ZM12.6289 15.168V18.0391C12.6289 18.2929 12.5281 18.5363 12.3486 18.7158C12.1691 18.8953 11.9257 18.9961 11.6719 18.9961C11.4181 18.9961 11.1746 18.8953 10.9952 18.7158C10.8157 18.5363 10.7148 18.2929 10.7148 18.0391V15.168C10.7148 14.9141 10.8157 14.6707 10.9952 14.4912C11.1746 14.3118 11.4181 14.2109 11.6719 14.2109C11.9257 14.2109 12.1691 14.3118 12.3486 14.4912C12.5281 14.6707 12.6289 14.9141 12.6289 15.168ZM16.457 13.2539V18.0391C16.457 18.2929 16.3562 18.5363 16.1767 18.7158C15.9972 18.8953 15.7538 18.9961 15.5 18.9961C15.2462 18.9961 15.0028 18.8953 14.8233 18.7158C14.6438 18.5363 14.543 18.2929 14.543 18.0391V13.2539C14.543 13.0001 14.6438 12.7567 14.8233 12.5772C15.0028 12.3977 15.2462 12.2969 15.5 12.2969C15.7538 12.2969 15.9972 12.3977 16.1767 12.5772C16.3562 12.7567 16.457 13.0001 16.457 13.2539ZM20.2852 11.3398V18.0391C20.2852 18.2929 20.1843 18.5363 20.0048 18.7158C19.8254 18.8953 19.5819 18.9961 19.3281 18.9961C19.0743 18.9961 18.8309 18.8953 18.6514 18.7158C18.4719 18.5363 18.3711 18.2929 18.3711 18.0391V11.3398C18.3711 11.086 18.4719 10.8426 18.6514 10.6631C18.8309 10.4836 19.0743 10.3828 19.3281 10.3828C19.5819 10.3828 19.8254 10.4836 20.0048 10.6631C20.1843 10.8426 20.2852 11.086 20.2852 11.3398Z" fill="white"/>
</g>
</svg>
